<svg xmlns="http://www.w3.org/2000/svg" width="80" height="80"><rect id="backgroundrect" width="100%" height="100%" x="0" y="0" fill="none" stroke="none" class="" style=""/>















<g class="currentLayer" style=""><title>Layer 1</title><path style="stroke: none;" d="M8.844136800689739e-8,8.844136800689739e-8 L8.844136800689739e-8,76.87499936421705 L76.87499936421705,76.87499936421705 L76.87499936421705,8.844136800689739e-8 L8.844136800689739e-8,8.844136800689739e-8 z" id="svg_1" class="" fill="#ffffff" fill-opacity="1" opacity="0"/><path style="fill:#16c0f0; stroke:none;" d="M23.312500715255737,17.062498807907104 C36.36800071525573,17.660498807907103 44.63850071525573,27.642198807907107 46.31250071525574,40.062498807907104 C49.276500715255736,39.18249880790711 51.86050071525574,38.09299880790711 54.09850071525574,35.8487988079071 C70.76850071525573,19.136598807907106 44.18750071525574,-7.343401192092898 27.52620071525574,9.276198807907107 C25.282000715255734,11.514798807907098 24.193000715255735,14.098398807907103 23.312500715255737,17.062498807907104 z" id="svg_2" class=""/><path style="fill:#16c0f0; stroke:none;" d="M23.312500715255737,17.062498807907104 C36.36800071525573,17.660498807907103 44.63850071525573,27.642198807907107 46.31250071525574,40.062498807907104 C49.276500715255736,39.18249880790711 51.86050071525574,38.09299880790711 54.09850071525574,35.8487988079071 C70.76850071525573,19.136598807907106 44.18750071525574,-7.343401192092898 27.52620071525574,9.276198807907107 C25.282000715255734,11.514798807907098 24.193000715255735,14.098398807907103 23.312500715255737,17.062498807907104 z" class="" id="svg_19"/><path style="fill:#16c0f0; stroke:none;" d="M23.312500715255737,17.062498807907104 C36.36800071525573,17.660498807907103 44.63850071525573,27.642198807907107 46.31250071525574,40.062498807907104 C49.276500715255736,39.18249880790711 51.86050071525574,38.09299880790711 54.09850071525574,35.8487988079071 C70.76850071525573,19.136598807907106 44.18750071525574,-7.343401192092898 27.52620071525574,9.276198807907107 C25.282000715255734,11.514798807907098 24.193000715255735,14.098398807907103 23.312500715255737,17.062498807907104 z" class="" id="svg_20"/><path style="fill:#00aaaa; stroke:none;" d="M81.18750071525574,32.937498807907104 L82.18750071525574,33.937498807907104 L81.18750071525574,32.937498807907104 z" id="svg_3" class=""/><path style="fill:#007f7f; stroke:none;" d="M59.56250071525574,28.437498807907104 L60.56250071525574,29.437498807907104 L59.56250071525574,28.437498807907104 z" id="svg_4" class=""/><path style="fill:#4bd18e; stroke:none;" d="M18.312500715255737,56.062498807907104 C18.910500715255736,43.0074988079071 28.89220071525574,34.73639880790711 41.31250071525574,33.062498807907104 C40.43550071525574,30.110098807907107 39.36610071525574,27.59219880790711 37.098800715255734,25.3919988079071 C20.213500715255734,9.006898807907106 -6.040499284744264,35.2400988079071 10.52620071525574,51.848498807907106 C12.764900715255735,54.09349880790711 15.348400715255735,55.18249880790711 18.312500715255737,56.062498807907104 z" id="svg_5" class=""/><path style="fill:#4bd18e; stroke:none;" d="M18.312500715255737,56.062498807907104 C18.910500715255736,43.0074988079071 28.89220071525574,34.73639880790711 41.31250071525574,33.062498807907104 C40.43550071525574,30.110098807907107 39.36610071525574,27.59219880790711 37.098800715255734,25.3919988079071 C20.213500715255734,9.006898807907106 -6.040499284744264,35.2400988079071 10.52620071525574,51.848498807907106 C12.764900715255735,54.09349880790711 15.348400715255735,55.18249880790711 18.312500715255737,56.062498807907104 z" class="" id="svg_18"/><path style="fill:#8a25b1; stroke:none;" d="M62.31250071525574,22.062498807907104 C61.71450071525574,35.1179988079071 51.73250071525574,43.3884988079071 39.31250071525574,45.062498807907104 C40.190000715255735,48.0144988079071 41.258500715255735,50.5324988079071 43.526500715255736,52.73349880790711 C60.41850071525573,69.12549880790709 86.72150071525573,42.94149880790711 70.09850071525574,26.276198807907107 C67.86050071525574,24.031998807907108 65.27650071525574,22.942998807907102 62.31250071525574,22.062498807907104 z" id="svg_6" class=""/><path style="fill:#0000ff; stroke:none;" d="M58.31250071525574,26.062498807907104 L59.31250071525574,27.062498807907104 L58.31250071525574,26.062498807907104 z" id="svg_7" class=""/><path style="fill:#00ffff; stroke:none;" d="M29.187500715255737,47.187498807907104 L30.187500715255737,48.187498807907104 L29.187500715255737,47.187498807907104 z" id="svg_8" class=""/><path style="fill:#7f7f7f; stroke:none;" d="M30.312500715255737,35.062498807907104 L31.312500715255737,36.062498807907104 L30.312500715255737,35.062498807907104 z" id="svg_9" class=""/><path style="fill:#ff00ff; stroke:none;" d="M110.56250071525574,76.3124988079071 L111.56250071525574,77.3124988079071 L110.56250071525574,76.3124988079071 z" id="svg_10" class=""/><path style="fill:#f09116; stroke:none;" d="M57.31250071525574,61.062498807907104 C44.33450071525574,60.46849880790711 35.98860071525574,50.4484988079071 34.31250071525574,38.062498807907104 C31.004300715255738,39.11949880790711 28.17660071525573,40.5614988079071 25.84570071525573,43.24749880790711 C23.90630071525574,45.482498807907106 22.666000715255734,48.196498807907105 21.996900715255734,51.062498807907104 C16.837600715255732,73.16549880790711 51.92750071525573,83.7104988079071 57.31250071525574,61.062498807907104 z" id="svg_11" class=""/><path style="fill:#f09116; stroke:none;" d="M57.31250071525574,61.062498807907104 C44.33450071525574,60.46849880790711 35.98860071525574,50.4484988079071 34.31250071525574,38.062498807907104 C31.004300715255738,39.11949880790711 28.17660071525573,40.5614988079071 25.84570071525573,43.24749880790711 C23.90630071525574,45.482498807907106 22.666000715255734,48.196498807907105 21.996900715255734,51.062498807907104 C16.837600715255732,73.16549880790711 51.92750071525573,83.7104988079071 57.31250071525574,61.062498807907104 z" class="" id="svg_17"/><path style="fill:#7f7f00; stroke:none;" d="M28.312500715255737,40.062498807907104 L29.312500715255737,41.062498807907104 L28.312500715255737,40.062498807907104 z" id="svg_12" class=""/><path style="fill:#ff0000; stroke:none;" d="M34.31250071525574,41.062498807907104 L35.31250071525574,42.062498807907104 L34.31250071525574,41.062498807907104 z" id="svg_13" class=""/><path style="fill:#00ffff; stroke:none;" d="M43.43750071525574,88.3124988079071 L44.43750071525574,89.3124988079071 L43.43750071525574,88.3124988079071 z" id="svg_14" class=""/><path style="fill:#ff00ff; stroke:none;" d="M49.31250071525574,42.062498807907104 L50.31250071525574,43.062498807907104 L49.31250071525574,42.062498807907104 z" id="svg_15" class=""/></g></svg>